<mxfile host="app.diagrams.net" modified="2023-01-30T11:01:18.835Z" agent="5.0 (Macintosh; Intel Mac OS X 10_15_2) AppleWebKit/537.36 (KHTML, like Gecko) Chrome/109.0.0.0 Safari/537.36" etag="dueCf7OkXTPaw_hQtNZ5" version="20.8.13" type="github">
  <diagram name="第 1 页" id="iaAaqvoJrE7IUrjrYmj5">
    <mxGraphModel dx="954" dy="569" grid="1" gridSize="10" guides="1" tooltips="1" connect="1" arrows="1" fold="1" page="1" pageScale="1" pageWidth="827" pageHeight="1169" math="0" shadow="0">
      <root>
        <mxCell id="0" />
        <mxCell id="1" parent="0" />
        <mxCell id="_w4XyUv2KGkm80B2BpcY-1" value="" style="ellipse;shape=cloud;whiteSpace=wrap;html=1;strokeWidth=2;fillColor=#f5f5f5;strokeColor=#666666;fontColor=#333333;" vertex="1" parent="1">
          <mxGeometry x="90" y="210" width="190" height="100" as="geometry" />
        </mxCell>
        <mxCell id="_w4XyUv2KGkm80B2BpcY-2" value="" style="ellipse;shape=cloud;whiteSpace=wrap;html=1;strokeWidth=2;fillColor=#dae8fc;strokeColor=#6c8ebf;" vertex="1" parent="1">
          <mxGeometry x="390" y="210" width="190" height="100" as="geometry" />
        </mxCell>
        <mxCell id="_w4XyUv2KGkm80B2BpcY-7" style="edgeStyle=orthogonalEdgeStyle;rounded=0;orthogonalLoop=1;jettySize=auto;html=1;entryX=0.55;entryY=0.95;entryDx=0;entryDy=0;entryPerimeter=0;strokeWidth=2;curved=1;exitX=0.55;exitY=0.95;exitDx=0;exitDy=0;exitPerimeter=0;" edge="1" parent="1">
          <mxGeometry relative="1" as="geometry">
            <mxPoint x="500" y="225" as="sourcePoint" />
            <mxPoint x="200" y="225" as="targetPoint" />
            <Array as="points">
              <mxPoint x="499.5" y="170" />
              <mxPoint x="199.5" y="170" />
            </Array>
          </mxGeometry>
        </mxCell>
        <mxCell id="_w4XyUv2KGkm80B2BpcY-8" value="&lt;h1&gt;&lt;font style=&quot;font-size: 16px;&quot;&gt;Outer Props&lt;/font&gt;&lt;/h1&gt;&lt;p&gt;ScaleX&lt;/p&gt;&lt;p&gt;ScaleY&lt;/p&gt;" style="text;html=1;strokeColor=none;fillColor=none;spacing=5;spacingTop=-20;whiteSpace=wrap;overflow=hidden;rounded=0;" vertex="1" parent="1">
          <mxGeometry x="90" y="310" width="120" height="120" as="geometry" />
        </mxCell>
        <mxCell id="_w4XyUv2KGkm80B2BpcY-9" value="&lt;h1&gt;&lt;span style=&quot;font-size: 16px;&quot;&gt;Inner State&lt;/span&gt;&lt;/h1&gt;&lt;p&gt;resizingScaleX&lt;/p&gt;&lt;p&gt;resizingScaleY&lt;/p&gt;" style="text;html=1;strokeColor=none;fillColor=none;spacing=5;spacingTop=-20;whiteSpace=wrap;overflow=hidden;rounded=0;" vertex="1" parent="1">
          <mxGeometry x="550" y="300" width="120" height="120" as="geometry" />
        </mxCell>
        <mxCell id="_w4XyUv2KGkm80B2BpcY-10" value="&lt;font color=&quot;#006eff&quot;&gt;&lt;b&gt;初始化&lt;/b&gt;&lt;/font&gt;" style="text;html=1;strokeColor=none;fillColor=none;align=center;verticalAlign=middle;whiteSpace=wrap;rounded=0;fontSize=16;" vertex="1" parent="1">
          <mxGeometry x="320" y="370" width="60" height="30" as="geometry" />
        </mxCell>
        <mxCell id="_w4XyUv2KGkm80B2BpcY-11" value="&lt;font color=&quot;#006eff&quot;&gt;&lt;b&gt;状态同步&lt;/b&gt;&lt;/font&gt;" style="text;html=1;strokeColor=none;fillColor=none;align=center;verticalAlign=middle;whiteSpace=wrap;rounded=0;fontSize=16;" vertex="1" parent="1">
          <mxGeometry x="305" y="130" width="90" height="30" as="geometry" />
        </mxCell>
        <mxCell id="_w4XyUv2KGkm80B2BpcY-12" style="edgeStyle=orthogonalEdgeStyle;rounded=0;orthogonalLoop=1;jettySize=auto;html=1;entryX=0;entryY=0.5;entryDx=0;entryDy=0;strokeWidth=2;curved=1;exitX=0.55;exitY=0.95;exitDx=0;exitDy=0;exitPerimeter=0;fillColor=#d5e8d4;strokeColor=#82b366;" edge="1" parent="1" target="_w4XyUv2KGkm80B2BpcY-9">
          <mxGeometry relative="1" as="geometry">
            <mxPoint x="140" y="370" as="sourcePoint" />
            <mxPoint x="440" y="370" as="targetPoint" />
            <Array as="points">
              <mxPoint x="140" y="425" />
              <mxPoint x="550" y="425" />
            </Array>
          </mxGeometry>
        </mxCell>
        <mxCell id="_w4XyUv2KGkm80B2BpcY-13" style="edgeStyle=orthogonalEdgeStyle;rounded=0;orthogonalLoop=1;jettySize=auto;html=1;entryX=0;entryY=0.5;entryDx=0;entryDy=0;strokeWidth=2;curved=1;exitX=0.55;exitY=0.95;exitDx=0;exitDy=0;exitPerimeter=0;fillColor=#d5e8d4;strokeColor=#82b366;" edge="1" parent="1">
          <mxGeometry relative="1" as="geometry">
            <mxPoint x="140" y="410" as="sourcePoint" />
            <mxPoint x="550" y="400" as="targetPoint" />
            <Array as="points">
              <mxPoint x="140" y="465" />
              <mxPoint x="550" y="465" />
            </Array>
          </mxGeometry>
        </mxCell>
        <mxCell id="_w4XyUv2KGkm80B2BpcY-14" style="edgeStyle=orthogonalEdgeStyle;rounded=0;orthogonalLoop=1;jettySize=auto;html=1;entryX=0;entryY=0.5;entryDx=0;entryDy=0;strokeWidth=2;curved=1;exitX=0.55;exitY=0.95;exitDx=0;exitDy=0;exitPerimeter=0;fillColor=#f8cecc;strokeColor=#b85450;" edge="1" parent="1">
          <mxGeometry relative="1" as="geometry">
            <mxPoint x="550" y="440" as="sourcePoint" />
            <mxPoint x="140" y="450" as="targetPoint" />
            <Array as="points">
              <mxPoint x="550" y="505" />
              <mxPoint x="140" y="505" />
            </Array>
          </mxGeometry>
        </mxCell>
        <mxCell id="_w4XyUv2KGkm80B2BpcY-15" style="edgeStyle=orthogonalEdgeStyle;rounded=0;orthogonalLoop=1;jettySize=auto;html=1;entryX=0;entryY=0.5;entryDx=0;entryDy=0;strokeWidth=2;curved=1;exitX=0.55;exitY=0.95;exitDx=0;exitDy=0;exitPerimeter=0;fillColor=#f8cecc;strokeColor=#b85450;" edge="1" parent="1">
          <mxGeometry relative="1" as="geometry">
            <mxPoint x="550" y="480" as="sourcePoint" />
            <mxPoint x="140" y="490" as="targetPoint" />
            <Array as="points">
              <mxPoint x="550" y="545" />
              <mxPoint x="140" y="545" />
            </Array>
          </mxGeometry>
        </mxCell>
        <mxCell id="_w4XyUv2KGkm80B2BpcY-16" style="edgeStyle=orthogonalEdgeStyle;rounded=0;orthogonalLoop=1;jettySize=auto;html=1;entryX=0.55;entryY=0.95;entryDx=0;entryDy=0;entryPerimeter=0;strokeWidth=2;curved=1;exitX=0.55;exitY=0.95;exitDx=0;exitDy=0;exitPerimeter=0;" edge="1" parent="1">
          <mxGeometry relative="1" as="geometry">
            <mxPoint x="200" y="310" as="sourcePoint" />
            <mxPoint x="500" y="310" as="targetPoint" />
            <Array as="points">
              <mxPoint x="200.5" y="365" />
              <mxPoint x="500.5" y="365" />
            </Array>
          </mxGeometry>
        </mxCell>
        <mxCell id="_w4XyUv2KGkm80B2BpcY-18" value="" style="verticalLabelPosition=bottom;verticalAlign=top;html=1;shape=mxgraph.basic.partConcEllipse;startAngle=0.25;endAngle=0.1;arcWidth=0.5;fontSize=16;strokeWidth=2;fillColor=#f8cecc;strokeColor=#b85450;" vertex="1" parent="1">
          <mxGeometry x="610" y="235" width="50" height="50" as="geometry" />
        </mxCell>
        <mxCell id="_w4XyUv2KGkm80B2BpcY-19" value="&lt;b style=&quot;&quot;&gt;&lt;font color=&quot;#e54545&quot;&gt;状态循环&lt;/font&gt;&lt;/b&gt;" style="text;html=1;strokeColor=none;fillColor=none;align=center;verticalAlign=middle;whiteSpace=wrap;rounded=0;fontSize=16;" vertex="1" parent="1">
          <mxGeometry x="590" y="190" width="90" height="30" as="geometry" />
        </mxCell>
      </root>
    </mxGraphModel>
  </diagram>
</mxfile>
